<svg xmlns="http://www.w3.org/2000/svg" width="400" height="100" viewBox="0 0 400 100">
<defs><filter id="ink" x="-10%" y="-10%" width="120%" height="120%">
<feTurbulence type="fractalNoise" baseFrequency="0.04" numOctaves="3" seed="1" result="n"/>
<feDisplacementMap in="SourceGraphic" in2="n" scale="5" xChannelSelector="R" yChannelSelector="G"/>
</filter></defs>
<g filter="url(#ink)"><path fill="#151412" d="M8.0 34.9 L14.4 31.1 L20.8 28.7 L27.2 29.2 L33.6 27.4 L40.0 25.2 L46.4 24.0 L52.8 24.5 L59.2 23.9 L65.6 22.6 L72.0 23.5 L78.4 20.6 L84.8 20.9 L91.2 22.3 L97.6 20.1 L104.0 19.1 L110.4 19.0 L116.8 20.1 L123.2 18.2 L129.6 18.9 L136.0 18.1 L142.4 19.9 L148.8 18.9 L155.2 18.9 L161.6 18.6 L168.0 19.7 L174.4 19.3 L180.8 19.4 L187.2 18.7 L193.6 20.2 L200.0 19.8 L206.4 20.5 L212.8 20.7 L219.2 22.5 L225.6 22.0 L232.0 21.4 L238.4 22.2 L244.8 22.0 L251.2 24.5 L257.6 23.5 L264.0 25.1 L270.4 24.8 L276.8 24.0 L283.2 26.1 L289.6 25.9 L296.0 26.9 L302.4 28.3 L308.8 29.3 L315.2 29.5 L321.6 30.6 L328.0 33.4 L334.4 34.0 L340.8 35.8 L347.2 38.2 L353.6 40.9 L360.0 50.1 L366.4 49.6 L372.8 50.1 L379.2 49.4 L385.6 48.7 L392.0 50.3 L392.0 50.7 L385.6 50.6 L379.2 49.5 L372.8 48.7 L366.4 50.3 L360.0 50.9 L353.6 60.0 L347.2 61.3 L340.8 63.9 L334.4 64.9 L328.0 68.9 L321.6 68.0 L315.2 69.0 L308.8 72.0 L302.4 71.8 L296.0 73.1 L289.6 74.6 L283.2 75.4 L276.8 74.2 L270.4 76.4 L264.0 75.4 L257.6 77.1 L251.2 77.5 L244.8 76.1 L238.4 78.8 L232.0 79.0 L225.6 77.0 L219.2 80.2 L212.8 79.0 L206.4 80.6 L200.0 78.8 L193.6 79.7 L187.2 81.1 L180.8 79.2 L174.4 79.7 L168.0 80.7 L161.6 81.9 L155.2 80.7 L148.8 80.3 L142.4 79.7 L136.0 79.5 L129.6 80.4 L123.2 78.9 L116.8 80.2 L110.4 80.9 L104.0 80.7 L97.6 79.6 L91.2 79.1 L84.8 77.7 L78.4 77.0 L72.0 77.2 L65.6 76.4 L59.2 75.6 L52.8 74.5 L46.4 74.2 L40.0 72.8 L33.6 74.4 L27.2 70.7 L20.8 70.9 L14.4 67.4 L8.0 63.5 Z"/><path fill="none" stroke="#efe7d6" stroke-width="1.0419580016285181" stroke-linecap="round" stroke-linejoin="round" d="M202 56.0 L396 57.0"/><path fill="none" stroke="#efe7d6" stroke-width="1.6482216309756041" stroke-linecap="round" stroke-linejoin="round" d="M251 33.7 L396 32.1"/><path fill="none" stroke="#efe7d6" stroke-width="1.2489970937371253" stroke-linecap="round" stroke-linejoin="round" d="M249 29.0 L396 28.2"/><path fill="none" stroke="#efe7d6" stroke-width="1.2802434872835875" stroke-linecap="round" stroke-linejoin="round" d="M266 65.8 L396 64.9"/><path fill="none" stroke="#efe7d6" stroke-width="2.4378458436578514" stroke-linecap="round" stroke-linejoin="round" d="M244 48.2 L396 46.3"/><path fill="none" stroke="#efe7d6" stroke-width="1.9208221912384034" stroke-linecap="round" stroke-linejoin="round" d="M237 70.9 L396 70.7"/><path fill="none" stroke="#efe7d6" stroke-width="1.3834487605839967" stroke-linecap="round" stroke-linejoin="round" d="M216 65.9 L396 66.5"/><path fill="none" stroke="#efe7d6" stroke-width="2.5932728700339798" stroke-linecap="round" stroke-linejoin="round" d="M171 53.6 L396 53.2"/><path fill="none" stroke="#efe7d6" stroke-width="2.0620051112025974" stroke-linecap="round" stroke-linejoin="round" d="M262 57.6 L396 57.1"/></g></svg>