<svg xmlns="http://www.w3.org/2000/svg" width="1000" height="1000" viewBox="0 0 1000 1000">
<defs><filter id="ink" x="-10%" y="-10%" width="120%" height="120%">
<feTurbulence type="fractalNoise" baseFrequency="0.02" numOctaves="3" seed="34" result="n"/>
<feDisplacementMap in="SourceGraphic" in2="n" scale="5" xChannelSelector="R" yChannelSelector="G"/>
</filter><radialGradient id="lens" cx="50%" cy="50%" r="50%"><stop offset=".72" stop-color="#000" stop-opacity="0"/><stop offset="1" stop-color="#000" stop-opacity=".55"/></radialGradient></defs>
<g filter="url(#ink)">
<path fill="#0b0a09" fill-rule="evenodd" d="M-40 -40 H1040 V1040 H-40 Z M60 500 A440 440 0 1 0 940 500 A440 440 0 1 0 60 500 Z"/>
<circle cx="500" cy="500" r="440" fill="url(#lens)"/>
<circle cx="500" cy="500" r="446" fill="none" stroke="#0b0a09" stroke-width="22"/>
<path fill="none" stroke="#151412" stroke-width="10" stroke-linecap="round" stroke-linejoin="round" d="M60 500 H330 M670 500 H940 M500 60 V330 M500 670 V940"/>
<path fill="none" stroke="#151412" stroke-width="2" stroke-linecap="round" stroke-linejoin="round" d="M330 500 H470 M530 500 H670 M500 330 V470 M500 530 V670"/>
<path fill="none" stroke="#151412" stroke-width="2.5" stroke-linecap="round" stroke-linejoin="round" d="M330 489 V511"/><path fill="none" stroke="#151412" stroke-width="2.5" stroke-linecap="round" stroke-linejoin="round" d="M489 330 H511"/><path fill="none" stroke="#151412" stroke-width="2.5" stroke-linecap="round" stroke-linejoin="round" d="M364 494 V506"/><path fill="none" stroke="#151412" stroke-width="2.5" stroke-linecap="round" stroke-linejoin="round" d="M494 364 H506"/><path fill="none" stroke="#151412" stroke-width="2.5" stroke-linecap="round" stroke-linejoin="round" d="M398 494 V506"/><path fill="none" stroke="#151412" stroke-width="2.5" stroke-linecap="round" stroke-linejoin="round" d="M494 398 H506"/><path fill="none" stroke="#151412" stroke-width="2.5" stroke-linecap="round" stroke-linejoin="round" d="M432 494 V506"/><path fill="none" stroke="#151412" stroke-width="2.5" stroke-linecap="round" stroke-linejoin="round" d="M494 432 H506"/><path fill="none" stroke="#151412" stroke-width="2.5" stroke-linecap="round" stroke-linejoin="round" d="M466 494 V506"/><path fill="none" stroke="#151412" stroke-width="2.5" stroke-linecap="round" stroke-linejoin="round" d="M494 466 H506"/><path fill="none" stroke="#151412" stroke-width="2.5" stroke-linecap="round" stroke-linejoin="round" d="M534 494 V506"/><path fill="none" stroke="#151412" stroke-width="2.5" stroke-linecap="round" stroke-linejoin="round" d="M494 534 H506"/><path fill="none" stroke="#151412" stroke-width="2.5" stroke-linecap="round" stroke-linejoin="round" d="M568 494 V506"/><path fill="none" stroke="#151412" stroke-width="2.5" stroke-linecap="round" stroke-linejoin="round" d="M494 568 H506"/><path fill="none" stroke="#151412" stroke-width="2.5" stroke-linecap="round" stroke-linejoin="round" d="M602 494 V506"/><path fill="none" stroke="#151412" stroke-width="2.5" stroke-linecap="round" stroke-linejoin="round" d="M494 602 H506"/><path fill="none" stroke="#151412" stroke-width="2.5" stroke-linecap="round" stroke-linejoin="round" d="M636 494 V506"/><path fill="none" stroke="#151412" stroke-width="2.5" stroke-linecap="round" stroke-linejoin="round" d="M494 636 H506"/><path fill="none" stroke="#151412" stroke-width="2.5" stroke-linecap="round" stroke-linejoin="round" d="M670 489 V511"/><path fill="none" stroke="#151412" stroke-width="2.5" stroke-linecap="round" stroke-linejoin="round" d="M489 670 H511"/>
<circle cx="500" cy="500" r="3.5" fill="#b3301c"/></g></svg>